<mxfile host="app.diagrams.net" modified="2024-07-30T08:05:05.033Z" agent="Mozilla/5.0 (X11; Linux x86_64) AppleWebKit/537.36 (KHTML, like Gecko) Chrome/126.0.0.0 Safari/537.36" version="24.4.0" etag="A4OOm95P2TJyEmhICK9J" type="github">
  <diagram name="Page-1" id="oTsPyy-1VSc8slXnEmKt">
    <mxGraphModel>
      <root>
        <mxCell id="0" />
        <mxCell id="1" parent="0" />
      </root>
    </mxGraphModel>
  </diagram>
</mxfile>
